# xmcd
#
# Track frame offsets: 
#        150
#        15705
#        33305
#        50077
#        66125
#        88685
#        111002
#        130355
#        143408
#        156651
#        170678
#        189903
#
# Disc length: 2795 seconds
#
# Revision: 2
# Processed by: cddbd v1.5.1PL2 Copyright (c) Steve Scherf et al.
# Submitted via: ExactAudioCopy v0.95b4
#
DISCID=a40ae90c
DTITLE=Tish Hinojosa - Sign Of Truth
DYEAR=2000
DGENRE=Country
TTITLE0=Sign Of Truth
TTITLE1=Mona Lisa By The Rio Grande
TTITLE2=Fire In Winter
TTITLE3=Taste Of Dying Summer
TTITLE4=Fence Post
TTITLE5=Roses Around My Feet
TTITLE6=I Have No Answers
TTITLE7=Hey Little Love
TTITLE8=Wildflowers
TTITLE9=Faded Souvenir
TTITLE10=The Dreams I Have Seen
TTITLE11=Song For The Journey
EXTD=
EXTT0=
EXTT1=
EXTT2=
EXTT3=
EXTT4=
EXTT5=
EXTT6=
EXTT7=
EXTT8=
EXTT9=
EXTT10=
EXTT11=
PLAYORDER=
